#!OML:ASF C:\Vicon Data\Big\jianyuan-13\jianyuan\Session 1\Capture.male.ASF
:FULLY-SPECIFIED
:DEGREES
195
root -5.773923 17.701515 -4.568775 2.767194 5.137473 -0.353509
lowerback -6.984712 -0.719945 -1.692574 
upperback 3.129361 -0.793472 0.362808 
thorax 7.234493 -0.467783 1.228875 
lowerneck -1.904648 -1.957397 3.502921 
upperneck 11.211969 -2.009881 -4.067749 
head 3.924861 -0.848071 -2.048375 
rclavicle 0.000000 0.000000 
rhumerus -36.668763 -15.471896 -79.658519 
rradius 36.921111 
rwrist 24.704889 
rhand -18.603690 -17.926139 
rfingers 0.000000 
rthumb 7.687702 -47.766417 
lclavicle 0.000000 0.000000 
lhumerus -17.411185 21.096059 87.890380 
lradius 31.868553 
lwrist -43.542564 
lhand -21.244272 1.943522 
lfingers 0.000000 
lthumb 5.138467 31.861209 
rfemur -74.142757 -10.947967 17.778080 
rtibia 108.181581 
rfoot -5.169150 3.418418 
rtoes -36.821674 
lfemur -10.227145 -6.769927 -24.075526 
ltibia 18.597806 
lfoot -12.557435 2.243950 
ltoes -19.222969 
196
root -5.756660 17.720970 -4.456128 2.399287 5.382138 -0.618631
lowerback -7.053706 -0.752662 -1.431872 
upperback 3.177165 -0.870030 0.498540 
thorax 7.325789 -0.496896 1.213840 
lowerneck -1.941774 -1.995179 3.367150 
upperneck 11.189026 -2.054611 -4.087712 
head 3.922579 -0.877861 -2.032475 
rclavicle 0.000000 0.000000 
rhumerus -36.997798 -16.012675 -79.106567 
rradius 36.640511 
rwrist 25.179682 
rhand -18.472081 -17.853112 
rfingers 0.000000 
rthumb 7.814725 -47.688667 
lclavicle 0.000000 0.000000 
lhumerus -16.842732 19.447297 88.632566 
lradius 32.850361 
lwrist -42.381618 
lhand -21.133291 1.922576 
lfingers 0.000000 
lthumb 5.245693 31.837661 
rfemur -75.358108 -11.024537 18.179163 
rtibia 108.313023 
rfoot -5.248394 2.859952 
rtoes -36.927180 
lfemur -8.991233 -6.957735 -23.918951 
ltibia 17.751755 
lfoot -12.495370 2.352656 
ltoes -19.486044 
197
root -5.738989 17.741309 -4.337565 2.161883 5.630233 -0.853668
lowerback -7.247589 -0.828498 -1.215540 
upperback 3.157035 -0.999138 0.593774 
thorax 7.418408 -0.553215 1.172798 
lowerneck -2.007421 -2.006578 3.432803 
upperneck 11.255621 -2.054921 -4.238735 
head 3.958083 -0.880339 -2.098548 
rclavicle 0.000000 0.000000 
rhumerus -37.332821 -16.296438 -78.742889 
rradius 36.345135 
rwrist 25.298883 
rhand -18.424248 -17.852107 
rfingers 0.000000 
rthumb 7.860833 -47.685934 
lclavicle 0.000000 0.000000 
lhumerus -16.121219 18.193446 89.219147 
lradius 33.459228 
lwrist -41.230519 
lhand -21.160993 1.934167 
lfingers 0.000000 
lthumb 5.218867 31.849910 
rfemur -76.605782 -11.062732 18.548259 
rtibia 108.310607 
rfoot -5.245342 2.224668 
rtoes -36.127097 
lfemur -7.852260 -7.214113 -23.768895 
ltibia 16.855522 
lfoot -12.412636 2.455557 
ltoes -19.593910 
198
root -5.720524 17.759509 -4.221273 1.949987 5.856284 -1.088543
lowerback -7.494542 -0.882186 -0.975917 
upperback 3.146088 -1.102204 0.702759 
thorax 7.550241 -0.595731 1.135517 
lowerneck -2.032707 -2.030577 3.361270 
upperneck 11.273649 -2.079277 -4.265850 
head 3.968618 -0.896112 -2.096585 
rclavicle 0.000000 0.000000 
rhumerus -37.631699 -16.656234 -78.335420 
rradius 35.967643 
rwrist 25.716047 
rhand -18.485754 -17.847295 
rfingers 0.000000 
rthumb 7.801510 -47.683367 
lclavicle 0.000000 0.000000 
lhumerus -15.643123 16.754323 89.751569 
lradius 34.204487 
lwrist -40.143300 
lhand -21.095533 1.951705 
lfingers 0.000000 
lthumb 5.282102 31.865884 
rfemur -77.673816 -11.013873 18.866268 
rtibia 108.117548 
rfoot -5.493647 1.501142 
rtoes -35.603765 
lfemur -6.776535 -7.339192 -23.622303 
ltibia 15.990290 
lfoot -12.303285 2.519816 
ltoes -19.900114 
199
root -5.702495 17.781809 -4.108714 1.722231 6.020935 -1.388311
lowerback -7.701294 -0.872962 -0.676850 
upperback 3.131078 -1.131069 0.859115 
thorax 7.651901 -0.599316 1.125387 
lowerneck -2.032282 -2.100365 3.216857 
upperneck 11.269202 -2.158573 -4.310665 
head 3.963900 -0.942425 -2.088333 
rclavicle 0.000000 0.000000 
rhumerus -37.931824 -16.965428 -77.882979 
rradius 35.680628 
rwrist 25.600241 
rhand -18.457074 -17.868593 
rfingers 0.000000 
rthumb 7.829220 -47.703601 
lclavicle 0.000000 0.000000 
lhumerus -15.168011 15.532474 90.393733 
lradius 34.915821 
lwrist -39.115746 
lhand -21.197478 1.990537 
lfingers 0.000000 
lthumb 5.183673 31.907109 
rfemur -78.494873 -10.802518 19.229746 
rtibia 107.736594 
rfoot -5.725747 0.660502 
rtoes -34.907377 
lfemur -5.700528 -7.427809 -23.394820 
ltibia 15.125900 
lfoot -12.134166 2.506768 
ltoes -18.911530 
200
root -5.685903 17.789058 -3.993531 1.437658 6.239815 -1.541359
lowerback -7.787206 -0.942984 -0.568786 
upperback 3.071862 -1.243878 0.964282 
thorax 7.641382 -0.651808 1.158366 
lowerneck -1.966948 -2.114271 3.206650 
upperneck 11.334456 -2.158417 -4.365366 
head 3.974073 -0.940361 -2.104963 
rclavicle 0.000000 0.000000 
rhumerus -38.281190 -17.088266 -77.496516 
rradius 35.364934 
rwrist 25.744067 
rhand -18.276512 -17.843199 
rfingers 0.000000 
rthumb 8.003493 -47.671619 
lclavicle 0.000000 0.000000 
lhumerus -14.818388 14.811872 90.844260 
lradius 35.511511 
lwrist -38.573719 
lhand -21.176714 1.783862 
lfingers 0.000000 
lthumb 5.203731 31.699951 
rfemur -79.185899 -10.817853 19.497484 
rtibia 107.268010 
rfoot -6.137318 0.084358 
rtoes -34.713471 
lfemur -4.540605 -7.569355 -23.334354 
ltibia 14.251838 
lfoot -12.056439 2.566859 
ltoes -19.659819 
201
root -5.667464 17.814658 -3.880970 1.291970 6.445834 -1.784567
lowerback -8.019405 -1.008336 -0.243463 
upperback 2.912190 -1.378178 0.955391 
thorax 7.599858 -0.705990 0.943472 
lowerneck -1.558827 -2.132000 3.479202 
upperneck 11.291770 -2.164859 -4.446580 
head 3.876663 -0.925311 -2.172243 
rclavicle 0.000000 0.000000 
rhumerus -38.828323 -17.478250 -77.243073 
rradius 34.895344 
rwrist 26.563060 
rhand -18.434253 -17.808781 
rfingers 0.000000 
rthumb 7.851229 -47.642957 
lclavicle 0.000000 0.000000 
lhumerus -14.726458 14.076277 90.991035 
lradius 36.173488 
lwrist -37.792521 
lhand -21.236664 1.724693 
lfingers 0.000000 
lthumb 5.145805 31.642247 
rfemur -79.689982 -10.472048 19.689704 
rtibia 106.529658 
rfoot -6.708762 -0.726295 
rtoes -34.548267 
lfemur -3.527854 -7.748107 -23.146250 
ltibia 13.303805 
lfoot -11.881185 2.612290 
ltoes -19.539942 
202
root -5.650417 17.826986 -3.767552 1.071345 6.576942 -1.961532
lowerback -8.171124 -0.982207 -0.074146 
upperback 2.840987 -1.407524 1.073370 
thorax 7.611045 -0.730997 0.964140 
lowerneck -1.572848 -2.172268 3.390810 
upperneck 11.440997 -2.198305 -4.446952 
head 3.931276 -0.939969 -2.160785 
rclavicle 0.000000 0.000000 
rhumerus -39.181826 -17.622448 -76.825980 
rradius 34.624829 
rwrist 26.704622 
rhand -18.425212 -17.869177 
rfingers 0.000000 
rthumb 7.859942 -47.703017 
lclavicle 0.000000 0.000000 
lhumerus -14.507035 13.350396 91.462674 
lradius 36.801082 
lwrist -37.303513 
lhand -20.979616 1.669748 
lfingers 0.000000 
lthumb 5.394042 31.581105 
rfemur -80.061294 -10.208292 19.822986 
rtibia 105.734408 
rfoot -7.002126 -1.239917 
rtoes -34.266679 
lfemur -2.428542 -7.899235 -23.048914 
ltibia 12.403115 
lfoot -11.766131 2.706365 
ltoes -19.656084 
203
root -5.634816 17.838370 -3.660409 0.933653 6.696608 -2.176054
lowerback -8.381435 -0.976512 0.138494 
upperback 2.746658 -1.435680 1.212351 
thorax 7.630874 -0.738484 0.983984 
lowerneck -1.554579 -2.216544 3.383037 
upperneck 11.585147 -2.215818 -4.645565 
head 3.977172 -0.949653 -2.230392 
rclavicle 0.000000 0.000000 
rhumerus -39.525037 -17.425305 -76.516334 
rradius 34.430882 
rwrist 26.971448 
rhand -18.138893 -17.942916 
rfingers 0.000000 
rthumb 8.136321 -47.766289 
lclavicle 0.000000 0.000000 
lhumerus -14.407515 12.574177 91.919090 
lradius 37.358430 
lwrist -36.470223 
lhand -21.047785 1.706181 
lfingers 0.000000 
lthumb 5.328176 31.619157 
rfemur -80.357019 -9.859589 19.971022 
rtibia 104.858840 
rfoot -7.321168 -1.723286 
rtoes -33.764362 
lfemur -1.475993 -7.834475 -22.889109 
ltibia 11.556844 
lfoot -11.522355 2.630874 
ltoes -19.565108 
204
root -5.618825 17.845503 -3.561196 0.901020 6.831259 -2.320097
lowerback -8.636416 -0.978152 0.376783 
upperback 2.626756 -1.467004 1.241794 
thorax 7.645232 -0.742251 0.873029 
lowerneck -1.576934 -2.239317 3.507474 
upperneck 11.761903 -2.221174 -4.768861 
head 4.042959 -0.945515 -2.299812 
rclavicle 0.000000 0.000000 
rhumerus -39.796400 -18.388919 -75.897822 
rradius 33.842095 
rwrist 28.039009 
rhand -18.169135 -17.739910 
rfingers 0.000000 
rthumb 8.107084 -47.564391 
lclavicle 0.000000 0.000000 
lhumerus -14.391288 11.809031 92.200034 
lradius 38.020172 
lwrist -35.855415 
lhand -20.867933 1.818899 
lfingers 0.000000 
lthumb 5.501872 31.727428 
rfemur -80.653776 -9.593865 20.068635 
rtibia 103.937894 
rfoot -7.471303 -2.160563 
rtoes -33.879423 
lfemur -0.707879 -8.065717 -22.817421 
ltibia 10.807686 
lfoot -11.389549 2.833784 
ltoes -19.709347 
205
root -5.604424 17.851973 -3.463637 0.744528 6.944250 -2.355003
lowerback -8.724471 -1.024487 0.416974 
upperback 2.530299 -1.536946 1.294623 
thorax 7.594399 -0.775757 0.894611 
lowerneck -1.585151 -2.261856 3.434342 
upperneck 11.933461 -2.223704 -4.803249 
head 4.106087 -0.944685 -2.302298 
rclavicle 0.000000 0.000000 
rhumerus -40.060382 -18.713738 -75.470928 
rradius 33.459225 
rwrist 28.507882 
rhand -18.102124 -17.619805 
rfingers 0.000000 
rthumb 8.171752 -47.441812 
lclavicle 0.000000 0.000000 
lhumerus -14.478144 11.495218 92.462214 
lradius 38.589185 
lwrist -35.511030 
lhand -20.765609 1.542286 
lfingers 0.000000 
lthumb 5.600654 31.448291 
rfemur -80.663891 -9.354032 20.013818 
rtibia 102.979017 
rfoot -7.659378 -2.479336 
rtoes -34.223442 
lfemur 0.110318 -8.116934 -22.858002 
ltibia 10.237083 
lfoot -11.301977 2.814069 
ltoes -19.582413 
206
root -5.591928 17.860331 -3.368572 0.613942 7.060818 -2.385124
lowerback -8.846636 -1.038989 0.433277 
upperback 2.452401 -1.564560 1.367075 
thorax 7.583793 -0.790529 0.955975 
lowerneck -1.579513 -2.280604 3.303689 
upperneck 12.000597 -2.240918 -4.731089 
head 4.129370 -0.952932 -2.255557 
rclavicle 0.000000 0.000000 
rhumerus -40.247030 -18.880831 -75.125406 
rradius 33.201930 
rwrist 28.519075 
rhand -17.824925 -17.562297 
rfingers 0.000000 
rthumb 8.439311 -47.373733 
lclavicle 0.000000 0.000000 
lhumerus -14.546833 10.999761 92.803754 
lradius 39.184665 
lwrist -34.909498 
lhand -20.691581 1.560727 
lfingers 0.000000 
lthumb 5.672115 31.464807 
rfemur -80.604793 -9.097958 19.929606 
rtibia 101.942181 
rfoot -7.808312 -2.814035 
rtoes -33.542775 
lfemur 0.829719 -8.038697 -22.877872 
ltibia 9.750520 
lfoot -11.182349 2.671873 
ltoes -19.020463 
